<?xml version="1.0" encoding="UTF-8" standalone="no"?>
<!-- Generator: Adobe Illustrator 16.0.0, SVG Export Plug-In . SVG Version: 6.00 Build 0)  -->

<svg
   xmlns:dc="http://purl.org/dc/elements/1.1/"
   xmlns:cc="http://creativecommons.org/ns#"
   xmlns:rdf="http://www.w3.org/1999/02/22-rdf-syntax-ns#"
   xmlns:svg="http://www.w3.org/2000/svg"
   xmlns="http://www.w3.org/2000/svg"
   xmlns:sodipodi="http://sodipodi.sourceforge.net/DTD/sodipodi-0.dtd"
   xmlns:inkscape="http://www.inkscape.org/namespaces/inkscape"
   version="1.1"
   id="Capa_1"
   x="0px"
   y="0px"
   width="400"
   height="400"
   viewBox="0 0 400 400"
   xml:space="preserve"
   inkscape:version="0.91 r13725"
   sodipodi:docname="auricular-phone-symbol-in-a-circle.svg"
   inkscape:export-filename="E:\Projects\paola\images\auricular-phone-symbol-in-a-circle.png"
   inkscape:export-xdpi="90"
   inkscape:export-ydpi="90"><metadata
   id="metadata41"><rdf:RDF><cc:Work
       rdf:about=""><dc:format>image/svg+xml</dc:format><dc:type
         rdf:resource="http://purl.org/dc/dcmitype/StillImage" /><dc:title></dc:title></cc:Work></rdf:RDF></metadata><defs
   id="defs39" /><sodipodi:namedview
   pagecolor="#ffffff"
   bordercolor="#666666"
   borderopacity="1"
   objecttolerance="10"
   gridtolerance="10"
   guidetolerance="10"
   inkscape:pageopacity="0"
   inkscape:pageshadow="2"
   inkscape:window-width="1536"
   inkscape:window-height="801"
   id="namedview37"
   showgrid="false"
   inkscape:zoom="0.4609375"
   inkscape:cx="-8.6779661"
   inkscape:cy="253.83051"
   inkscape:window-x="-8"
   inkscape:window-y="-8"
   inkscape:window-maximized="1"
   inkscape:current-layer="Capa_1" />
<g
   id="g3"
   style="fill:#4d4d4d"
   transform="scale(0.78125,0.78125)">
	<path
   d="M 256,32 C 379.5,32 480,132.5 480,256 480,379.5 379.5,480 256,480 132.5,480 32,379.5 32,256 32,132.5 132.5,32 256,32 M 256,0 C 114.625,0 0,114.625 0,256 0,397.375 114.625,512 256,512 397.375,512 512,397.375 512,256 512,114.625 397.375,0 256,0 l 0,0 z m 142.719,341.594 -1.438,-4.375 c -3.375,-10.062 -14.5,-20.562 -24.75,-23.375 L 334.688,303.5 c -10.25,-2.781 -24.875,0.969 -32.405,8.5 l -13.688,13.688 c -49.75,-13.469 -88.781,-52.5 -102.219,-102.25 l 13.688,-13.688 c 7.5,-7.5 11.25,-22.125 8.469,-32.406 L 198.219,139.5 c -2.781,-10.25 -13.344,-21.375 -23.406,-24.75 l -4.313,-1.438 c -10.094,-3.375 -24.5,0.031 -32,7.563 l -20.5,20.5 c -3.656,3.625 -6,14.031 -6,14.063 -0.688,65.063 24.813,127.719 70.813,173.75 45.875,45.875 108.313,71.345 173.156,70.781 0.344,0 11.063,-2.281 14.719,-5.938 l 20.5,-20.5 c 7.5,-7.469 10.874,-21.875 7.531,-31.937 z"
   id="path5"
   style="fill:#4d4d4d"
   inkscape:connector-curvature="0" />
</g>
<g
   id="g7"
   transform="translate(0,-112)">
</g>
<g
   id="g9"
   transform="translate(0,-112)">
</g>
<g
   id="g11"
   transform="translate(0,-112)">
</g>
<g
   id="g13"
   transform="translate(0,-112)">
</g>
<g
   id="g15"
   transform="translate(0,-112)">
</g>
<g
   id="g17"
   transform="translate(0,-112)">
</g>
<g
   id="g19"
   transform="translate(0,-112)">
</g>
<g
   id="g21"
   transform="translate(0,-112)">
</g>
<g
   id="g23"
   transform="translate(0,-112)">
</g>
<g
   id="g25"
   transform="translate(0,-112)">
</g>
<g
   id="g27"
   transform="translate(0,-112)">
</g>
<g
   id="g29"
   transform="translate(0,-112)">
</g>
<g
   id="g31"
   transform="translate(0,-112)">
</g>
<g
   id="g33"
   transform="translate(0,-112)">
</g>
<g
   id="g35"
   transform="translate(0,-112)">
</g>
</svg>