<?xml version="1.0" encoding="UTF-8" standalone="no"?>
<!-- Generator: Adobe Illustrator 18.1.1, SVG Export Plug-In . SVG Version: 6.00 Build 0)  -->

<svg
   xmlns:dc="http://purl.org/dc/elements/1.1/"
   xmlns:cc="http://creativecommons.org/ns#"
   xmlns:rdf="http://www.w3.org/1999/02/22-rdf-syntax-ns#"
   xmlns:svg="http://www.w3.org/2000/svg"
   xmlns="http://www.w3.org/2000/svg"
   xmlns:sodipodi="http://sodipodi.sourceforge.net/DTD/sodipodi-0.dtd"
   xmlns:inkscape="http://www.inkscape.org/namespaces/inkscape"
   version="1.1"
   id="Capa_1"
   x="0px"
   y="0px"
   viewBox="0 0 400.00001 400.00001"
   xml:space="preserve"
   inkscape:version="0.91 r13725"
   sodipodi:docname="cellphone.svg"
   width="400"
   height="400"
   inkscape:export-filename="E:\Projects\paola\images\cellphone.png"
   inkscape:export-xdpi="90"
   inkscape:export-ydpi="90"><metadata
   id="metadata71"><rdf:RDF><cc:Work
       rdf:about=""><dc:format>image/svg+xml</dc:format><dc:type
         rdf:resource="http://purl.org/dc/dcmitype/StillImage" /><dc:title /></cc:Work></rdf:RDF></metadata><defs
   id="defs69" /><sodipodi:namedview
   pagecolor="#ffffff"
   bordercolor="#666666"
   borderopacity="1"
   objecttolerance="10"
   gridtolerance="10"
   guidetolerance="10"
   inkscape:pageopacity="0"
   inkscape:pageshadow="2"
   inkscape:window-width="1536"
   inkscape:window-height="801"
   id="namedview67"
   showgrid="false"
   inkscape:zoom="0.53749728"
   inkscape:cx="-19.883822"
   inkscape:cy="13.48844"
   inkscape:window-x="-8"
   inkscape:window-y="-8"
   inkscape:window-maximized="1"
   inkscape:current-layer="Capa_1" />
<g
   id="g3"
   transform="scale(14.576197,14.576197)"
   style="fill:#4d4d4d">
	<path
   d="M 19.494,0 7.948,0 C 6.843,0 5.951,0.896 5.951,1.999 l 0,23.446 c 0,1.102 0.892,1.997 1.997,1.997 l 11.546,0 c 1.103,0 1.997,-0.895 1.997,-1.997 l 0,-23.446 C 21.491,0.896 20.597,0 19.494,0 Z m -8.622,1.214 5.7,0 c 0.144,0 0.261,0.215 0.261,0.481 0,0.266 -0.117,0.482 -0.261,0.482 l -5.7,0 c -0.145,0 -0.26,-0.216 -0.26,-0.482 0,-0.266 0.115,-0.481 0.26,-0.481 z m 2.85,24.255 c -0.703,0 -1.275,-0.572 -1.275,-1.276 0,-0.704 0.572,-1.274 1.275,-1.274 0.701,0 1.273,0.57 1.273,1.274 0,0.704 -0.572,1.276 -1.273,1.276 z m 6.273,-4.369 -12.547,0 0,-17.727 12.547,0 0,17.727 z"
   id="path5"
   inkscape:connector-curvature="0"
   style="fill:#4d4d4d" />
	<g
   id="g7"
   style="fill:#4d4d4d">
	</g>
	<g
   id="g9"
   style="fill:#4d4d4d">
	</g>
	<g
   id="g11"
   style="fill:#4d4d4d">
	</g>
	<g
   id="g13"
   style="fill:#4d4d4d">
	</g>
	<g
   id="g15"
   style="fill:#4d4d4d">
	</g>
	<g
   id="g17"
   style="fill:#4d4d4d">
	</g>
	<g
   id="g19"
   style="fill:#4d4d4d">
	</g>
	<g
   id="g21"
   style="fill:#4d4d4d">
	</g>
	<g
   id="g23"
   style="fill:#4d4d4d">
	</g>
	<g
   id="g25"
   style="fill:#4d4d4d">
	</g>
	<g
   id="g27"
   style="fill:#4d4d4d">
	</g>
	<g
   id="g29"
   style="fill:#4d4d4d">
	</g>
	<g
   id="g31"
   style="fill:#4d4d4d">
	</g>
	<g
   id="g33"
   style="fill:#4d4d4d">
	</g>
	<g
   id="g35"
   style="fill:#4d4d4d">
	</g>
</g>
<g
   id="g37"
   transform="translate(0,372.558)">
</g>
<g
   id="g39"
   transform="translate(0,372.558)">
</g>
<g
   id="g41"
   transform="translate(0,372.558)">
</g>
<g
   id="g43"
   transform="translate(0,372.558)">
</g>
<g
   id="g45"
   transform="translate(0,372.558)">
</g>
<g
   id="g47"
   transform="translate(0,372.558)">
</g>
<g
   id="g49"
   transform="translate(0,372.558)">
</g>
<g
   id="g51"
   transform="translate(0,372.558)">
</g>
<g
   id="g53"
   transform="translate(0,372.558)">
</g>
<g
   id="g55"
   transform="translate(0,372.558)">
</g>
<g
   id="g57"
   transform="translate(0,372.558)">
</g>
<g
   id="g59"
   transform="translate(0,372.558)">
</g>
<g
   id="g61"
   transform="translate(0,372.558)">
</g>
<g
   id="g63"
   transform="translate(0,372.558)">
</g>
<g
   id="g65"
   transform="translate(0,372.558)">
</g>
</svg>