<?xml version="1.0" encoding="UTF-8" standalone="no"?>
<!-- Generator: Adobe Illustrator 19.0.0, SVG Export Plug-In . SVG Version: 6.00 Build 0)  -->

<svg
   xmlns:dc="http://purl.org/dc/elements/1.1/"
   xmlns:cc="http://creativecommons.org/ns#"
   xmlns:rdf="http://www.w3.org/1999/02/22-rdf-syntax-ns#"
   xmlns:svg="http://www.w3.org/2000/svg"
   xmlns="http://www.w3.org/2000/svg"
   xmlns:sodipodi="http://sodipodi.sourceforge.net/DTD/sodipodi-0.dtd"
   xmlns:inkscape="http://www.inkscape.org/namespaces/inkscape"
   version="1.1"
   id="Capa_1"
   x="0px"
   y="0px"
   viewBox="0 0 399.99999 399.99999"
   xml:space="preserve"
   inkscape:version="0.91 r13725"
   sodipodi:docname="internet2.svg"
   width="400"
   height="400"
   inkscape:export-filename="E:\Projects\paola\images\internet2.png"
   inkscape:export-xdpi="90"
   inkscape:export-ydpi="90"><metadata
   id="metadata71"><rdf:RDF><cc:Work
       rdf:about=""><dc:format>image/svg+xml</dc:format><dc:type
         rdf:resource="http://purl.org/dc/dcmitype/StillImage" /><dc:title></dc:title></cc:Work></rdf:RDF></metadata><defs
   id="defs69" /><sodipodi:namedview
   pagecolor="#ffffff"
   bordercolor="#666666"
   borderopacity="1"
   objecttolerance="10"
   gridtolerance="10"
   guidetolerance="10"
   inkscape:pageopacity="0"
   inkscape:pageshadow="2"
   inkscape:window-width="1536"
   inkscape:window-height="801"
   id="namedview67"
   showgrid="false"
   inkscape:zoom="4.0725465"
   inkscape:cx="-0.98218646"
   inkscape:cy="28.728954"
   inkscape:window-x="-8"
   inkscape:window-y="-8"
   inkscape:window-maximized="1"
   inkscape:current-layer="Capa_1" />
<g
   id="g3"
   transform="matrix(6.9025022,0,0,6.9189784,-1.245e-6,-0.47739914)"
   style="fill:#4d4d4d">
	<path
   d="m 29.975,27.985 11.972,0 c -0.123,-4.348 -1.033,-8.567 -2.664,-12.477 -3.01,0.874 -6.131,1.355 -9.308,1.44 l 0,11.037 z"
   id="path5"
   inkscape:connector-curvature="0"
   style="fill:#4d4d4d" />
	<path
   d="m 40.384,13.057 c 2.928,-1.01 5.731,-2.392 8.328,-4.169 l 0.653,-0.5 C 44.588,3.658 38.18,0.58 31.071,0.069 L 30.553,0.49 c 4.214,3.489 7.546,7.778 9.831,12.567 z"
   id="path7"
   inkscape:connector-curvature="0"
   style="fill:#4d4d4d" />
	<path
   d="m 29.975,2.628 0,12.32 c 2.891,-0.082 5.731,-0.513 8.473,-1.283 C 36.421,9.505 33.557,5.753 29.975,2.628 Z"
   id="path9"
   inkscape:connector-curvature="0"
   style="fill:#4d4d4d" />
	<path
   d="m 41.531,42.202 c 3.13,1.132 6.12,2.668 8.885,4.639 l 0.868,0.65 c 3.976,-4.785 6.439,-10.866 6.665,-17.505 l -14.002,0 c -0.113,4.238 -0.941,8.357 -2.416,12.216 z"
   id="path11"
   inkscape:connector-curvature="0"
   style="fill:#4d4d4d" />
	<path
   d="m 9.237,8.888 c 2.597,1.777 5.401,3.158 8.328,4.169 C 19.85,8.269 23.182,3.98 27.397,0.49 L 26.879,0.069 C 19.754,0.581 13.332,3.672 8.551,8.419 l 0.686,0.469 z"
   id="path13"
   inkscape:connector-curvature="0"
   style="fill:#4d4d4d" />
	<path
   d="m 27.975,2.628 c -3.583,3.125 -6.446,6.878 -8.473,11.036 2.742,0.77 5.582,1.202 8.473,1.283 l 0,-12.319 z"
   id="path15"
   inkscape:connector-curvature="0"
   style="fill:#4d4d4d" />
	<path
   d="M 14.003,29.985 0,29.985 c 0.227,6.639 2.689,12.719 6.665,17.505 l 0.85,-0.635 c 2.775,-1.977 5.771,-3.518 8.906,-4.652 -1.478,-3.862 -2.305,-7.981 -2.418,-12.218 z"
   id="path17"
   inkscape:connector-curvature="0"
   style="fill:#4d4d4d" />
	<path
   d="M 16.752,14.89 C 13.715,13.826 10.807,12.385 8.108,10.539 L 7.17,9.897 C 2.901,14.768 0.236,21.072 0,27.985 l 14.003,0 c 0.121,-4.56 1.058,-8.988 2.749,-13.095 z"
   id="path19"
   inkscape:connector-curvature="0"
   style="fill:#4d4d4d" />
	<path
   d="m 16.003,27.985 11.972,0 0,-11.037 c -3.179,-0.085 -6.301,-0.566 -9.309,-1.438 -1.631,3.909 -2.541,8.127 -2.663,12.475 z"
   id="path21"
   inkscape:connector-curvature="0"
   style="fill:#4d4d4d" />
	<path
   d="M 27.297,57.391 C 22.878,53.696 19.456,49.132 17.186,44.05 c -2.992,1.074 -5.851,2.538 -8.492,4.42 l -0.689,0.515 c 4.774,5.003 11.31,8.304 18.605,8.896 l 0.687,-0.49 z"
   id="path23"
   inkscape:connector-curvature="0"
   style="fill:#4d4d4d" />
	<path
   d="m 27.975,40.023 0,-10.038 -11.972,0 c 0.113,4.019 0.905,7.924 2.313,11.58 3.113,-0.938 6.353,-1.454 9.659,-1.542 z"
   id="path25"
   inkscape:connector-curvature="0"
   style="fill:#4d4d4d" />
	<path
   d="m 49.236,48.456 c -2.631,-1.875 -5.482,-3.335 -8.469,-4.406 -2.272,5.094 -5.698,9.662 -10.113,13.344 l 0.685,0.487 c 7.295,-0.592 13.832,-3.892 18.606,-8.895 l -0.709,-0.53 z"
   id="path27"
   inkscape:connector-curvature="0"
   style="fill:#4d4d4d" />
	<path
   d="m 49.885,10.507 c -2.72,1.862 -5.643,3.311 -8.689,4.38 1.692,4.108 2.629,8.537 2.751,13.098 l 14.003,0 C 57.713,21.05 55.033,14.729 50.741,9.852 l -0.856,0.655 z"
   id="path29"
   inkscape:connector-curvature="0"
   style="fill:#4d4d4d" />
	<path
   d="m 27.975,55.342 0,-13.319 c -3.039,0.085 -6.016,0.556 -8.882,1.4 2.043,4.509 5.048,8.575 8.882,11.919 z"
   id="path31"
   inkscape:connector-curvature="0"
   style="fill:#4d4d4d" />
	<path
   d="m 41.947,29.985 -11.972,0 0,10.038 c 3.307,0.088 6.548,0.604 9.662,1.542 1.404,-3.655 2.196,-7.56 2.31,-11.58 z"
   id="path33"
   inkscape:connector-curvature="0"
   style="fill:#4d4d4d" />
	<path
   d="m 38.86,43.423 c -2.866,-0.844 -5.845,-1.314 -8.885,-1.4 l 0,13.323 c 3.831,-3.333 6.839,-7.403 8.885,-11.923 z"
   id="path35"
   inkscape:connector-curvature="0"
   style="fill:#4d4d4d" />
</g>
<g
   id="g37"
   transform="translate(0,342.051)">
</g>
<g
   id="g39"
   transform="translate(0,342.051)">
</g>
<g
   id="g41"
   transform="translate(0,342.051)">
</g>
<g
   id="g43"
   transform="translate(0,342.051)">
</g>
<g
   id="g45"
   transform="translate(0,342.051)">
</g>
<g
   id="g47"
   transform="translate(0,342.051)">
</g>
<g
   id="g49"
   transform="translate(0,342.051)">
</g>
<g
   id="g51"
   transform="translate(0,342.051)">
</g>
<g
   id="g53"
   transform="translate(0,342.051)">
</g>
<g
   id="g55"
   transform="translate(0,342.051)">
</g>
<g
   id="g57"
   transform="translate(0,342.051)">
</g>
<g
   id="g59"
   transform="translate(0,342.051)">
</g>
<g
   id="g61"
   transform="translate(0,342.051)">
</g>
<g
   id="g63"
   transform="translate(0,342.051)">
</g>
<g
   id="g65"
   transform="translate(0,342.051)">
</g>
</svg>