<?xml version="1.0" encoding="UTF-8" standalone="no"?>
<!-- Generator: Adobe Illustrator 19.0.0, SVG Export Plug-In . SVG Version: 6.00 Build 0)  -->

<svg
   xmlns:dc="http://purl.org/dc/elements/1.1/"
   xmlns:cc="http://creativecommons.org/ns#"
   xmlns:rdf="http://www.w3.org/1999/02/22-rdf-syntax-ns#"
   xmlns:svg="http://www.w3.org/2000/svg"
   xmlns="http://www.w3.org/2000/svg"
   xmlns:sodipodi="http://sodipodi.sourceforge.net/DTD/sodipodi-0.dtd"
   xmlns:inkscape="http://www.inkscape.org/namespaces/inkscape"
   version="1.1"
   id="Capa_1"
   x="0px"
   y="0px"
   viewBox="0 0 58 58"
   style="enable-background:new 0 0 58 58;"
   xml:space="preserve"
   inkscape:version="0.91 r13725"
   sodipodi:docname="internet.svg"><metadata
   id="metadata39"><rdf:RDF><cc:Work
       rdf:about=""><dc:format>image/svg+xml</dc:format><dc:type
         rdf:resource="http://purl.org/dc/dcmitype/StillImage" /></cc:Work></rdf:RDF></metadata><defs
   id="defs37" /><sodipodi:namedview
   pagecolor="#ffffff"
   bordercolor="#666666"
   borderopacity="1"
   objecttolerance="10"
   gridtolerance="10"
   guidetolerance="10"
   inkscape:pageopacity="0"
   inkscape:pageshadow="2"
   inkscape:window-width="1536"
   inkscape:window-height="801"
   id="namedview35"
   showgrid="false"
   inkscape:zoom="4.0689655"
   inkscape:cx="-0.98305085"
   inkscape:cy="28.754237"
   inkscape:window-x="-8"
   inkscape:window-y="-8"
   inkscape:window-maximized="1"
   inkscape:current-layer="Capa_1" />
<path
   d="M 349.57241,-9.4344828 C 380.91034,-44.751724 400,-91.17931 400,-142 c 0,-52.87586 -20.66207,-100.98621 -54.28966,-136.78621 0,0 0,-0.007 0,-0.007 -0.0276,-0.0414 -0.069,-0.0552 -0.0896,-0.0897 -35.02759,-37.23448 -84.10345,-61.06896 -138.68966,-62.93793 l -0.007,-0.007 -3.89655,-0.10344 c -1.0069,-0.0345 -2.0138,-0.069 -3.02759,-0.069 -1.01379,0 -2.02069,0.0345 -3.02759,0.069 l -3.88275,0.10344 -0.007,0.007 c -54.58621,1.86897 -103.66207,25.70345 -138.689657,62.93793 -0.02759,0.0345 -0.06897,0.0483 -0.08966,0.0897 0,0 0,0.007 -0.0069,0.0138 C 20.662069,-242.98621 0,-194.87586 0,-142 c 0,50.82069 19.089655,97.248276 50.427586,132.5655172 0.04138,0.062069 0.04138,0.1310345 0.08966,0.1931035 0.124138,0.1724138 0.303449,0.2551724 0.434483,0.4137931 C 86.165517,30.537931 136.68966,55.896552 193.07586,57.827586 l 0.007,0.0069 3.88276,0.103448 C 197.97931,57.965517 198.98621,58 200,58 c 1.01379,0 2.02069,-0.03448 3.02759,-0.06897 l 3.88275,-0.103448 0.007,-0.0069 c 56.44828,-1.937931 107.02759,-27.344828 142.24138,-66.7931038 0.0897,-0.1172414 0.23448,-0.1517241 0.31724,-0.2758621 0.0552,-0.055172 0.0552,-0.1241379 0.0965,-0.1862069 z M 13.965517,-135.10345 l 82.779311,0 c 0.77931,29.23448 6.489652,57.641381 16.655172,84.255174 -19.613793,7.096552 -38.365517,16.613793 -55.937931,28.489655 C 31.62069,-53.096552 15.537931,-92.275862 13.965517,-135.10345 Z m 47.262069,-130.87586 c 17.158621,11.15862 35.427586,20.09655 54.482754,26.77241 -11.66896,28.32414 -18.124133,58.86207 -18.965512,90.31035 l -82.779311,0 c 1.648276,-44.87586 19.22069,-85.73793 47.262069,-117.08276 z m 324.806894,117.08276 -82.77931,0 c -0.84138,-31.44828 -7.29655,-61.98621 -18.96551,-90.31035 19.05517,-6.67586 37.32413,-15.61379 54.48275,-26.77241 28.04138,31.34483 45.6138,72.2069 47.26207,117.08276 z M 193.10345,-238.8069 c -19.93793,-0.56551 -39.51035,-3.53793 -58.42069,-8.84827 13.97931,-28.67586 33.71724,-54.55862 58.42069,-76.11035 l 0,84.95862 z m 0,13.79311 0,76.11724 -82.56552,0 c 0.84828,-29.98621 7.13793,-59.06897 18.38621,-86.03448 20.73103,6.00689 42.25517,9.33103 64.17931,9.91724 z m 13.7931,0 c 21.92414,-0.58621 43.44828,-3.90345 64.18621,-9.91724 11.24827,26.96551 17.53793,56.04827 18.38621,86.03448 l -82.57242,0 0,-76.11724 z m 0,-13.79311 0,-84.95862 c 24.70345,21.55173 44.44138,47.43449 58.42069,76.11035 -18.91034,5.31034 -38.48276,8.28276 -58.42069,8.84827 z m 71.78621,-13.04138 c -13.24828,-27.75862 -31.63448,-53.04827 -54.4,-74.72413 40.38621,5.28275 76.72414,23.54482 104.71034,50.46896 -15.88965,10.08276 -32.74482,18.19311 -50.31034,24.25517 z m -157.36552,0 c -17.56552,-6.06206 -34.420688,-14.17241 -50.303447,-24.25517 27.97931,-26.92414 64.324137,-45.18621 104.710347,-50.46896 -22.77242,21.67586 -41.15862,46.96551 -54.4069,74.72413 z m -10.77931,116.74483 82.56552,0 0,69.227588 c -22.8069,0.606896 -45.15173,4.165517 -66.62759,10.627586 -9.70345,-25.206896 -15.15862,-52.137934 -15.93793,-79.855174 z m 82.56552,83.020691 0,91.848276 c -26.44138,-23.068965 -47.17242,-51.096551 -61.26897,-82.186207 19.77242,-5.827586 40.31035,-9.068965 61.26897,-9.662069 z m 13.7931,91.848276 0,-91.848276 c 20.95862,0.586207 41.49655,3.834483 61.26897,9.655173 -14.09655,31.096552 -34.82759,59.124138 -61.26897,82.193103 z m 0,-105.641379 0,-69.227588 82.56552,0 c -0.77931,27.71724 -6.23448,54.648278 -15.94483,79.862071 -21.46896,-6.468966 -43.81379,-10.027587 -66.62069,-10.634483 z m 96.35862,-69.227588 82.77931,0 c -1.57241,42.827588 -17.64827,82.006898 -43.49655,112.744829 -17.57241,-11.875862 -36.32414,-21.393103 -55.93793,-28.489655 10.17241,-26.613793 15.87586,-55.020694 16.65517,-84.255174 z M 66.834483,-12.027586 c 16.317241,-10.84138 33.689657,-19.558621 51.841377,-26.075862 13.4138,30.0689652 32.66897,57.468965 57.04138,80.675862 -42.42069,-5.551724 -80.386206,-25.413793 -108.882757,-54.6 z m 157.448277,54.6 c 24.37241,-23.2 43.62758,-50.6000002 57.04138,-80.675862 18.15172,6.517241 35.51724,15.234482 51.84138,26.075862 -28.49655,29.186207 -66.46207,49.048276 -108.88276,54.6 z"
   id="path3"
   style="fill:#4d4d4d"
   inkscape:connector-curvature="0"
   inkscape:export-xdpi="90"
   inkscape:export-ydpi="90" />
<g
   id="g5">
</g>
<g
   id="g7">
</g>
<g
   id="g9">
</g>
<g
   id="g11">
</g>
<g
   id="g13">
</g>
<g
   id="g15">
</g>
<g
   id="g17">
</g>
<g
   id="g19">
</g>
<g
   id="g21">
</g>
<g
   id="g23">
</g>
<g
   id="g25">
</g>
<g
   id="g27">
</g>
<g
   id="g29">
</g>
<g
   id="g31">
</g>
<g
   id="g33">
</g>
</svg>