<?xml version="1.0" encoding="UTF-8" standalone="no"?>
<!-- Generator: Adobe Illustrator 19.0.0, SVG Export Plug-In . SVG Version: 6.00 Build 0)  -->

<svg
   xmlns:dc="http://purl.org/dc/elements/1.1/"
   xmlns:cc="http://creativecommons.org/ns#"
   xmlns:rdf="http://www.w3.org/1999/02/22-rdf-syntax-ns#"
   xmlns:svg="http://www.w3.org/2000/svg"
   xmlns="http://www.w3.org/2000/svg"
   xmlns:sodipodi="http://sodipodi.sourceforge.net/DTD/sodipodi-0.dtd"
   xmlns:inkscape="http://www.inkscape.org/namespaces/inkscape"
   version="1.1"
   id="Layer_1"
   x="0px"
   y="0px"
   viewBox="0 0 400 400"
   xml:space="preserve"
   inkscape:version="0.91 r13725"
   sodipodi:docname="message.svg"
   width="400"
   height="400"
   inkscape:export-filename="E:\Projects\paola\images\message.png"
   inkscape:export-xdpi="90"
   inkscape:export-ydpi="90"><metadata
   id="metadata55"><rdf:RDF><cc:Work
       rdf:about=""><dc:format>image/svg+xml</dc:format><dc:type
         rdf:resource="http://purl.org/dc/dcmitype/StillImage" /><dc:title></dc:title></cc:Work></rdf:RDF></metadata><defs
   id="defs53" /><sodipodi:namedview
   pagecolor="#ffffff"
   bordercolor="#666666"
   borderopacity="1"
   objecttolerance="10"
   gridtolerance="10"
   guidetolerance="10"
   inkscape:pageopacity="0"
   inkscape:pageshadow="2"
   inkscape:window-width="1536"
   inkscape:window-height="801"
   id="namedview51"
   showgrid="false"
   inkscape:zoom="0.4609375"
   inkscape:cx="-8.6779661"
   inkscape:cy="253.83051"
   inkscape:window-x="-8"
   inkscape:window-y="-8"
   inkscape:window-maximized="1"
   inkscape:current-layer="Layer_1" />


<g
   id="g4183"
   transform="matrix(0.78124998,0,0,0.78124998,1.3136489e-7,3.55859e-4)"><g
     style="fill:#4d4d4d"
     id="g3">
	<g
   style="fill:#4d4d4d"
   id="g5">
		<path
   style="fill:#4d4d4d"
   id="path7"
   d="m 511.609,197.601 c -10e-4,-0.77 -0.173,-1.933 -0.472,-2.603 -0.787,-2.854 -2.536,-5.461 -5.154,-7.281 l -73.292,-50.948 0,-54.616 c 0,-7.24 -5.872,-13.112 -13.112,-13.112 l -84.319,0 -71.743,-49.878 c -4.484,-3.121 -10.437,-3.134 -14.935,-0.026 l -72.206,49.904 -83.95,0 c -7.242,0 -13.112,5.872 -13.112,13.112 l 0,53.973 -73.648,50.901 c -3.623,2.504 -5.583,6.507 -5.645,10.6 C 0.017,197.704 0,197.777 0,197.857 l 0.391,284.235 c 0.005,3.477 1.391,6.81 3.852,9.266 2.458,2.451 5.788,3.827 9.26,3.827 0.007,0 0.012,0 0.018,0 l 485.385,-0.667 c 7.24,-0.01 13.104,-5.889 13.094,-13.13 l -0.391,-283.787 z m -78.919,-28.893 41.898,29.118 -41.898,29.128 0,-58.246 z M 256.015,45.884 l 33.31,23.156 -66.812,0 33.502,-23.156 z m -150.477,49.381 300.928,0 0,149.921 -101.036,70.242 -41.194,-31.954 c -0.064,-0.05 -0.119,-0.081 -0.181,-0.126 -4.604,-3.454 -11.116,-3.581 -15.894,0.126 l -41.493,32.185 -101.13,-69.893 0,-150.501 z m -26.224,72.738 0,59.64 -43.146,-29.819 43.146,-29.821 z M 26.258,222.867 184.927,332.522 26.578,455.346 26.258,222.867 Z M 51.875,468.909 256.199,310.425 459.79,468.348 51.875,468.909 Z M 327.144,332.271 485.42,222.235 485.74,455.294 327.144,332.271 Z"
   inkscape:connector-curvature="0" />
	</g>
</g><g
     style="fill:#4d4d4d"
     id="g9">
	<g
   style="fill:#4d4d4d"
   id="g11">
		<path
   style="fill:#4d4d4d"
   id="path13"
   d="m 344.77,147.713 -177.536,0 c -7.24,0 -13.112,5.872 -13.112,13.112 0,7.24 5.872,13.112 13.112,13.112 l 177.536,0 c 7.242,0 13.112,-5.872 13.112,-13.112 0,-7.24 -5.87,-13.112 -13.112,-13.112 z"
   inkscape:connector-curvature="0" />
	</g>
</g><g
     style="fill:#4d4d4d"
     id="g15">
	<g
   style="fill:#4d4d4d"
   id="g17">
		<path
   style="fill:#4d4d4d"
   id="path19"
   d="m 344.77,215.895 -177.536,0 c -7.24,0 -13.112,5.872 -13.112,13.112 0,7.24 5.872,13.112 13.112,13.112 l 177.536,0 c 7.242,0 13.112,-5.872 13.112,-13.112 0,-7.24 -5.87,-13.112 -13.112,-13.112 z"
   inkscape:connector-curvature="0" />
	</g>
</g></g>
<g
   id="g21"
   transform="translate(0,-112)">
</g>
<g
   id="g23"
   transform="translate(0,-112)">
</g>
<g
   id="g25"
   transform="translate(0,-112)">
</g>
<g
   id="g27"
   transform="translate(0,-112)">
</g>
<g
   id="g29"
   transform="translate(0,-112)">
</g>
<g
   id="g31"
   transform="translate(0,-112)">
</g>
<g
   id="g33"
   transform="translate(0,-112)">
</g>
<g
   id="g35"
   transform="translate(0,-112)">
</g>
<g
   id="g37"
   transform="translate(0,-112)">
</g>
<g
   id="g39"
   transform="translate(0,-112)">
</g>
<g
   id="g41"
   transform="translate(0,-112)">
</g>
<g
   id="g43"
   transform="translate(0,-112)">
</g>
<g
   id="g45"
   transform="translate(0,-112)">
</g>
<g
   id="g47"
   transform="translate(0,-112)">
</g>
<g
   id="g49"
   transform="translate(0,-112)">
</g>
</svg>