<?xml version="1.0" encoding="UTF-8" standalone="no"?>
<!-- Generator: Adobe Illustrator 19.1.0, SVG Export Plug-In . SVG Version: 6.00 Build 0)  -->

<svg
   xmlns:dc="http://purl.org/dc/elements/1.1/"
   xmlns:cc="http://creativecommons.org/ns#"
   xmlns:rdf="http://www.w3.org/1999/02/22-rdf-syntax-ns#"
   xmlns:svg="http://www.w3.org/2000/svg"
   xmlns="http://www.w3.org/2000/svg"
   xmlns:sodipodi="http://sodipodi.sourceforge.net/DTD/sodipodi-0.dtd"
   xmlns:inkscape="http://www.inkscape.org/namespaces/inkscape"
   version="1.1"
   id="Capa_1"
   x="0px"
   y="0px"
   viewBox="0 0 400 400"
   xml:space="preserve"
   inkscape:version="0.91 r13725"
   sodipodi:docname="phone-call.svg"
   width="400"
   height="400"
   inkscape:export-filename="E:\Projects\paola\images\phone-call.png"
   inkscape:export-xdpi="90"
   inkscape:export-ydpi="90"><metadata
   id="metadata47"><rdf:RDF><cc:Work
       rdf:about=""><dc:format>image/svg+xml</dc:format><dc:type
         rdf:resource="http://purl.org/dc/dcmitype/StillImage" /><dc:title></dc:title></cc:Work></rdf:RDF></metadata><defs
   id="defs45" /><sodipodi:namedview
   pagecolor="#ffffff"
   bordercolor="#666666"
   borderopacity="1"
   objecttolerance="10"
   gridtolerance="10"
   guidetolerance="10"
   inkscape:pageopacity="0"
   inkscape:pageshadow="2"
   inkscape:window-width="1536"
   inkscape:window-height="801"
   id="namedview43"
   showgrid="false"
   inkscape:zoom="0.49809416"
   inkscape:cx="-8.0306102"
   inkscape:cy="234.89535"
   inkscape:window-x="-8"
   inkscape:window-y="-8"
   inkscape:window-maximized="1"
   inkscape:current-layer="Capa_1" />
<g
   id="g3"
   transform="matrix(0.8454563,0,0,0.84422771,-0.29127317,-1.5535335e-4)"
   style="fill:#4d4d4d">
	<g
   id="g5"
   style="fill:#4d4d4d">
		<path
   d="m 374.456,293.506 c -9.7,-10.1 -21.4,-15.5 -33.8,-15.5 -12.3,0 -24.1,5.3 -34.2,15.4 l -31.6,31.5 c -2.6,-1.4 -5.2,-2.7 -7.7,-4 -3.6,-1.8 -7,-3.5 -9.9,-5.3 -29.6,-18.8 -56.5,-43.3 -82.3,-75 -12.5,-15.8 -20.9,-29.1 -27,-42.6 8.2,-7.5 15.8,-15.3 23.2,-22.8 2.8,-2.8 5.6,-5.7 8.4,-8.5 21,-21 21,-48.2 0,-69.2 l -27.3,-27.3 c -3.1,-3.1 -6.3,-6.3 -9.3,-9.5 -6,-6.2 -12.3,-12.6 -18.8,-18.6 -9.7,-9.6 -21.3,-14.7 -33.5,-14.7 -12.2,0 -24,5.1 -34,14.7 -0.1,0.1 -0.1,0.1 -0.2,0.2 l -34,34.3 c -12.8,12.8 -20.1,28.4 -21.7,46.5 -2.4,29.2 6.2,56.4 12.8,74.2 16.2,43.7 40.4,84.2 76.5,127.6 43.8,52.3 96.5,93.6 156.7,122.7 23,10.9 53.7,23.8 88,26 2.1,0.1 4.3,0.2 6.3,0.2 23.1,0 42.5,-8.3 57.7,-24.8 0.1,-0.2 0.3,-0.3 0.4,-0.5 5.2,-6.3 11.2,-12 17.5,-18.1 4.3,-4.1 8.7,-8.4 13,-12.9 9.9,-10.3 15.1,-22.3 15.1,-34.6 0,-12.4 -5.3,-24.3 -15.4,-34.3 l -54.9,-55.1 z m 35.8,105.3 c -0.1,0 -0.1,0.1 0,0 -3.9,4.2 -7.9,8 -12.2,12.2 -6.5,6.2 -13.1,12.7 -19.3,20 -10.1,10.8 -22,15.9 -37.6,15.9 -1.5,0 -3.1,0 -4.6,-0.1 -29.7,-1.9 -57.3,-13.5 -78,-23.4 -56.6,-27.4 -106.3,-66.3 -147.6,-115.6 -34.1,-41.1 -56.9,-79.1 -72,-119.9 -9.3,-24.9 -12.7,-44.3 -11.2,-62.6 1,-11.7 5.5,-21.4 13.8,-29.7 l 34.1,-34.1 c 4.9,-4.6 10.1,-7.1 15.2,-7.1 6.3,0 11.4,3.8 14.6,7 0.1,0.1 0.2,0.2 0.3,0.3 6.1,5.7 11.9,11.6 18,17.9 3.1,3.2 6.3,6.4 9.5,9.7 l 27.3,27.3 c 10.6,10.6 10.6,20.4 0,31 -2.9,2.9 -5.7,5.8 -8.6,8.6 -8.4,8.6 -16.4,16.6 -25.1,24.4 -0.2,0.2 -0.4,0.3 -0.5,0.5 -8.6,8.6 -7,17 -5.2,22.7 0.1,0.3 0.2,0.6 0.3,0.9 7.1,17.2 17.1,33.4 32.3,52.7 l 0.1,0.1 c 27.6,34 56.7,60.5 88.8,80.8 4.1,2.6 8.3,4.7 12.3,6.7 3.6,1.8 7,3.5 9.9,5.3 0.4,0.2 0.8,0.5 1.2,0.7 3.4,1.7 6.6,2.5 9.9,2.5 8.3,0 13.5,-5.2 15.2,-6.9 l 34.2,-34.2 c 3.4,-3.4 8.8,-7.5 15.1,-7.5 6.2,0 11.3,3.9 14.4,7.3 0.1,0.1 0.1,0.1 0.2,0.2 l 55.1,55.1 c 10.3,10.2 10.3,20.7 0.1,31.3 z"
   id="path7"
   inkscape:connector-curvature="0"
   style="fill:#4d4d4d" />
		<path
   d="m 256.056,112.706 c 26.2,4.4 50,16.8 69,35.8 19,19 31.3,42.8 35.8,69 1.1,6.6 6.8,11.2 13.3,11.2 0.8,0 1.5,-0.1 2.3,-0.2 7.4,-1.2 12.3,-8.2 11.1,-15.6 -5.4,-31.7 -20.4,-60.6 -43.3,-83.5 -22.9,-22.9 -51.8,-37.9 -83.5,-43.3 -7.4,-1.2 -14.3,3.7 -15.6,11 -1.3,7.3 3.5,14.4 10.9,15.6 z"
   id="path9"
   inkscape:connector-curvature="0"
   style="fill:#4d4d4d" />
		<path
   d="m 473.256,209.006 c -8.9,-52.2 -33.5,-99.7 -71.3,-137.5 -37.8,-37.8 -85.3,-62.4 -137.5,-71.3 -7.3,-1.3 -14.2,3.7 -15.5,11 -1.2,7.4 3.7,14.3 11.1,15.6 46.6,7.9 89.1,30 122.9,63.7 33.8,33.8 55.8,76.3 63.7,122.9 1.1,6.6 6.8,11.2 13.3,11.2 0.8,0 1.5,-0.1 2.3,-0.2 7.3,-1.1 12.3,-8.1 11,-15.4 z"
   id="path11"
   inkscape:connector-curvature="0"
   style="fill:#4d4d4d" />
	</g>
</g>
<g
   id="g13"
   transform="translate(0,-73.806)">
</g>
<g
   id="g15"
   transform="translate(0,-73.806)">
</g>
<g
   id="g17"
   transform="translate(0,-73.806)">
</g>
<g
   id="g19"
   transform="translate(0,-73.806)">
</g>
<g
   id="g21"
   transform="translate(0,-73.806)">
</g>
<g
   id="g23"
   transform="translate(0,-73.806)">
</g>
<g
   id="g25"
   transform="translate(0,-73.806)">
</g>
<g
   id="g27"
   transform="translate(0,-73.806)">
</g>
<g
   id="g29"
   transform="translate(0,-73.806)">
</g>
<g
   id="g31"
   transform="translate(0,-73.806)">
</g>
<g
   id="g33"
   transform="translate(0,-73.806)">
</g>
<g
   id="g35"
   transform="translate(0,-73.806)">
</g>
<g
   id="g37"
   transform="translate(0,-73.806)">
</g>
<g
   id="g39"
   transform="translate(0,-73.806)">
</g>
<g
   id="g41"
   transform="translate(0,-73.806)">
</g>
</svg>