<?xml version="1.0" standalone="no"?>
<!DOCTYPE svg PUBLIC "-//W3C//DTD SVG 20010904//EN"
 "http://www.w3.org/TR/2001/REC-SVG-20010904/DTD/svg10.dtd">
<svg version="1.0" xmlns="http://www.w3.org/2000/svg"
 width="16.000000pt" height="16.000000pt" viewBox="0 0 16.000000 16.000000"
 preserveAspectRatio="xMidYMid meet">
<metadata>
Created by potrace 1.11, written by Peter Selinger 2001-2013
</metadata>
<g transform="translate(0.000000,16.000000) scale(0.003200,-0.003200)"
fill="#000000" stroke="none">
<path d="M2329 4996 c-2 -2 -38 -6 -79 -10 -86 -7 -115 -12 -220 -32 -41 -8
-86 -17 -100 -20 -133 -25 -353 -105 -535 -194 -253 -124 -455 -269 -660 -475
-200 -200 -338 -390 -465 -639 -71 -138 -168 -389 -185 -476 -2 -8 -10 -42
-18 -75 -9 -33 -18 -76 -21 -95 -3 -19 -13 -80 -22 -135 -22 -129 -27 -470 -9
-615 32 -257 78 -441 167 -665 76 -191 191 -393 327 -575 85 -113 318 -358
396 -415 22 -17 49 -38 60 -48 62 -56 400 -267 429 -267 7 0 16 -4 22 -9 16
-16 215 -97 314 -129 153 -48 247 -70 430 -99 113 -17 444 -24 583 -11 363 34
726 155 1050 349 356 215 661 526 874 894 23 39 42 75 43 80 1 6 13 28 25 50
75 128 185 449 220 640 33 187 40 269 39 490 -1 338 -50 601 -171 905 -195
495 -540 909 -1003 1204 -106 67 -328 176 -440 215 -52 18 -104 37 -115 42
-59 26 -277 74 -450 100 -72 10 -477 23 -486 15z"/>
</g>
</svg>
