<?xml version="1.0" encoding="UTF-8" standalone="no"?>
<!-- Generator: Adobe Illustrator 16.0.0, SVG Export Plug-In . SVG Version: 6.00 Build 0)  -->

<svg
   xmlns:dc="http://purl.org/dc/elements/1.1/"
   xmlns:cc="http://creativecommons.org/ns#"
   xmlns:rdf="http://www.w3.org/1999/02/22-rdf-syntax-ns#"
   xmlns:svg="http://www.w3.org/2000/svg"
   xmlns="http://www.w3.org/2000/svg"
   xmlns:sodipodi="http://sodipodi.sourceforge.net/DTD/sodipodi-0.dtd"
   xmlns:inkscape="http://www.inkscape.org/namespaces/inkscape"
   version="1.1"
   id="Capa_1"
   x="0px"
   y="0px"
   width="400"
   height="400"
   viewBox="0 0 400.00001 400.00001"
   xml:space="preserve"
   inkscape:version="0.91 r13725"
   sodipodi:docname="skype-logo.svg"
   inkscape:export-filename="E:\Projects\paola\images\skype-logo.png"
   inkscape:export-xdpi="90"
   inkscape:export-ydpi="90"><metadata
   id="metadata40"><rdf:RDF><cc:Work
       rdf:about=""><dc:format>image/svg+xml</dc:format><dc:type
         rdf:resource="http://purl.org/dc/dcmitype/StillImage" /><dc:title></dc:title></cc:Work></rdf:RDF></metadata><defs
   id="defs38" /><sodipodi:namedview
   pagecolor="#ffffff"
   bordercolor="#666666"
   borderopacity="1"
   objecttolerance="10"
   gridtolerance="10"
   guidetolerance="10"
   inkscape:pageopacity="0"
   inkscape:pageshadow="2"
   inkscape:window-width="1536"
   inkscape:window-height="801"
   id="namedview36"
   showgrid="false"
   inkscape:zoom="0.54868028"
   inkscape:cx="-3.64511"
   inkscape:cy="213.23894"
   inkscape:window-x="-8"
   inkscape:window-y="-8"
   inkscape:window-maximized="1"
   inkscape:current-layer="Capa_1" />
<g
   id="g3"
   transform="matrix(0.92998816,0,0,0.92996871,-0.00465,-7.4131003e-7)"
   style="fill:#4d4d4d"
   inkscape:export-xdpi="90"
   inkscape:export-ydpi="90">
	<path
   id="Skype"
   d="m 412.164,246.198 c 1.605,-10.155 2.45,-20.544 2.45,-31.148 0,-110.215 -89.342,-199.555 -199.56,-199.555 -10.576,0 -20.995,0.871 -31.141,2.458 C 165.534,6.581 143.842,0 120.595,0 53.996,0 0.005,53.984 0.005,120.59 c 0,23.242 6.585,44.916 17.952,63.332 -1.573,10.172 -2.439,20.528 -2.439,31.132 0,110.223 89.34,199.536 199.532,199.536 10.585,0 21.007,-0.816 31.152,-2.417 18.398,11.35 40.072,17.949 63.314,17.949 66.617,0 120.602,-53.998 120.602,-120.602 0.005,-23.251 -6.576,-44.92 -17.954,-63.322 z M 309.801,305.81 c -8.442,12.153 -20.843,21.65 -37.047,28.479 -16.237,6.847 -35.428,10.254 -57.59,10.254 -26.562,0 -48.554,-4.648 -65.913,-14.034 -12.305,-6.721 -22.313,-15.737 -30.007,-26.98 -7.71,-11.252 -11.619,-22.271 -11.619,-33.015 0,-6.338 2.417,-11.85 7.122,-16.344 4.754,-4.527 10.877,-6.796 18.104,-6.796 5.92,0 11.005,1.783 15.145,5.316 4.109,3.532 7.556,8.667 10.375,15.443 3.379,7.85 7.049,14.412 10.954,19.648 3.881,5.171 9.343,9.488 16.417,12.867 6.996,3.388 16.307,5.082 27.958,5.082 15.945,0 28.831,-3.449 38.693,-10.253 9.912,-6.866 14.673,-15.22 14.673,-25.314 0,-8.051 -2.567,-14.445 -7.831,-19.43 -5.312,-5.05 -12.172,-8.896 -20.685,-11.579 -8.546,-2.711 -20.02,-5.586 -34.399,-8.615 -19.308,-4.214 -35.456,-9.119 -48.533,-14.752 -13.094,-5.654 -23.522,-13.383 -31.251,-23.146 -7.745,-9.859 -11.607,-22.113 -11.607,-36.627 0,-13.84 4.077,-26.217 12.239,-36.989 8.158,-10.802 19.961,-19.07 35.351,-24.829 15.336,-5.757 33.391,-8.637 54.075,-8.637 16.541,0 30.849,1.914 42.96,5.722 12.078,3.836 22.146,8.898 30.196,15.25 7.999,6.338 13.885,13.023 17.613,20.038 3.725,7.036 5.601,13.908 5.601,20.614 0,6.235 -2.417,11.89 -7.127,16.846 -4.709,4.963 -10.733,7.493 -17.768,7.47 -6.342,0 -11.317,-1.463 -14.767,-4.56 -3.36,-2.996 -6.889,-7.766 -10.706,-14.414 -4.825,-9.276 -10.604,-16.503 -17.324,-21.672 -6.543,-5.073 -17.338,-7.714 -32.359,-7.682 -13.898,0 -25.018,2.84 -33.411,8.394 -8.445,5.643 -12.482,12.19 -12.501,19.861 0.014,4.807 1.396,8.86 4.177,12.326 2.824,3.498 6.753,6.529 11.803,9.084 5.052,2.595 10.191,4.602 15.355,6.046 5.225,1.481 13.894,3.622 25.944,6.457 15.112,3.257 28.819,6.896 41.136,10.862 12.293,3.986 22.784,8.793 31.451,14.52 8.736,5.71 15.564,12.99 20.438,21.783 4.909,8.807 7.354,19.564 7.354,32.222 0.019,15.242 -4.227,28.95 -12.689,41.084 z"
   inkscape:connector-curvature="0"
   style="fill:#4d4d4d" />
</g>
<g
   id="g6"
   transform="translate(0,-30.122986)">
</g>
<g
   id="g8"
   transform="translate(0,-30.122986)">
</g>
<g
   id="g10"
   transform="translate(0,-30.122986)">
</g>
<g
   id="g12"
   transform="translate(0,-30.122986)">
</g>
<g
   id="g14"
   transform="translate(0,-30.122986)">
</g>
<g
   id="g16"
   transform="translate(0,-30.122986)">
</g>
<g
   id="g18"
   transform="translate(0,-30.122986)">
</g>
<g
   id="g20"
   transform="translate(0,-30.122986)">
</g>
<g
   id="g22"
   transform="translate(0,-30.122986)">
</g>
<g
   id="g24"
   transform="translate(0,-30.122986)">
</g>
<g
   id="g26"
   transform="translate(0,-30.122986)">
</g>
<g
   id="g28"
   transform="translate(0,-30.122986)">
</g>
<g
   id="g30"
   transform="translate(0,-30.122986)">
</g>
<g
   id="g32"
   transform="translate(0,-30.122986)">
</g>
<g
   id="g34"
   transform="translate(0,-30.122986)">
</g>
</svg>