<?xml version="1.0" encoding="UTF-8" standalone="no"?>
<!-- Generator: Adobe Illustrator 19.0.0, SVG Export Plug-In . SVG Version: 6.00 Build 0)  -->

<svg
   xmlns:dc="http://purl.org/dc/elements/1.1/"
   xmlns:cc="http://creativecommons.org/ns#"
   xmlns:rdf="http://www.w3.org/1999/02/22-rdf-syntax-ns#"
   xmlns:svg="http://www.w3.org/2000/svg"
   xmlns="http://www.w3.org/2000/svg"
   xmlns:sodipodi="http://sodipodi.sourceforge.net/DTD/sodipodi-0.dtd"
   xmlns:inkscape="http://www.inkscape.org/namespaces/inkscape"
   version="1.1"
   id="Layer_1"
   x="0px"
   y="0px"
   viewBox="0 0 400 400"
   xml:space="preserve"
   inkscape:version="0.91 r13725"
   sodipodi:docname="smartphone.svg"
   width="400"
   height="400"
   inkscape:export-filename="E:\Projects\paola\images\smartphone.png"
   inkscape:export-xdpi="90"
   inkscape:export-ydpi="90"><metadata
   id="metadata49"><rdf:RDF><cc:Work
       rdf:about=""><dc:format>image/svg+xml</dc:format><dc:type
         rdf:resource="http://purl.org/dc/dcmitype/StillImage" /><dc:title></dc:title></cc:Work></rdf:RDF></metadata><defs
   id="defs47" /><sodipodi:namedview
   pagecolor="#ffffff"
   bordercolor="#666666"
   borderopacity="1"
   objecttolerance="10"
   gridtolerance="10"
   guidetolerance="10"
   inkscape:pageopacity="0"
   inkscape:pageshadow="2"
   inkscape:window-width="1536"
   inkscape:window-height="801"
   id="namedview45"
   showgrid="false"
   inkscape:zoom="0.78666667"
   inkscape:cx="-5.0847458"
   inkscape:cy="148.72881"
   inkscape:window-x="-8"
   inkscape:window-y="-8"
   inkscape:window-maximized="1"
   inkscape:current-layer="Layer_1" />
<g
   id="g3"
   transform="matrix(1.3333422,0,0,1.3333333,-0.00133,5e-6)"
   style="fill:#4d4d4d">
	<g
   id="g5"
   style="fill:#4d4d4d">
		<g
   id="g7"
   style="fill:#4d4d4d">
			<circle
   cx="150.00101"
   cy="226.08501"
   r="11.718"
   id="circle9"
   style="fill:#4d4d4d" />
			<path
   d="m 182.691,68.248 -65.382,0 c -3.665,0 -6.647,2.843 -6.647,6.331 l 0,123.592 c 0,3.491 2.98,6.331 6.647,6.331 l 65.382,0 c 3.665,0 6.647,-2.843 6.647,-6.331 l 0,-123.592 c -0.002,-3.491 -2.982,-6.331 -6.647,-6.331 z"
   id="path11"
   inkscape:connector-curvature="0"
   style="fill:#4d4d4d" />
			<path
   d="M 149.996,0 C 67.157,0 0.001,67.161 0.001,149.997 0.001,232.833 67.157,300 149.996,300 232.835,300 299.999,232.837 299.999,149.997 299.999,67.157 232.835,0 149.996,0 Z m 58.358,224.021 c 0,11.458 -9.29,20.749 -20.749,20.749 l -75.214,0 c -11.458,0 -20.749,-9.29 -20.749,-20.749 l 0,-148.698 c 0,-11.458 9.29,-20.749 20.749,-20.749 l 75.214,0 c 11.458,0 20.749,9.29 20.749,20.749 l 0,148.698 z"
   id="path13"
   inkscape:connector-curvature="0"
   style="fill:#4d4d4d" />
		</g>
	</g>
</g>
<g
   id="g15"
   transform="translate(0,100)">
</g>
<g
   id="g17"
   transform="translate(0,100)">
</g>
<g
   id="g19"
   transform="translate(0,100)">
</g>
<g
   id="g21"
   transform="translate(0,100)">
</g>
<g
   id="g23"
   transform="translate(0,100)">
</g>
<g
   id="g25"
   transform="translate(0,100)">
</g>
<g
   id="g27"
   transform="translate(0,100)">
</g>
<g
   id="g29"
   transform="translate(0,100)">
</g>
<g
   id="g31"
   transform="translate(0,100)">
</g>
<g
   id="g33"
   transform="translate(0,100)">
</g>
<g
   id="g35"
   transform="translate(0,100)">
</g>
<g
   id="g37"
   transform="translate(0,100)">
</g>
<g
   id="g39"
   transform="translate(0,100)">
</g>
<g
   id="g41"
   transform="translate(0,100)">
</g>
<g
   id="g43"
   transform="translate(0,100)">
</g>
</svg>