<?xml version="1.0" encoding="UTF-8" standalone="no"?>
<!-- Created with Inkscape (http://www.inkscape.org/) -->

<svg
   xmlns:dc="http://purl.org/dc/elements/1.1/"
   xmlns:cc="http://creativecommons.org/ns#"
   xmlns:rdf="http://www.w3.org/1999/02/22-rdf-syntax-ns#"
   xmlns:svg="http://www.w3.org/2000/svg"
   xmlns="http://www.w3.org/2000/svg"
   xmlns:sodipodi="http://sodipodi.sourceforge.net/DTD/sodipodi-0.dtd"
   xmlns:inkscape="http://www.inkscape.org/namespaces/inkscape"
   width="400"
   height="400"
   viewBox="0 0 400 400.00001"
   id="svg2"
   version="1.1"
   inkscape:version="0.91 r13725"
   sodipodi:docname="whatsapp.svg">
  <defs
     id="defs4" />
  <sodipodi:namedview
     id="base"
     pagecolor="#ffffff"
     bordercolor="#666666"
     borderopacity="1.0"
     inkscape:pageopacity="0.0"
     inkscape:pageshadow="2"
     inkscape:zoom="0.35"
     inkscape:cx="-102.14286"
     inkscape:cy="517.14286"
     inkscape:document-units="px"
     inkscape:current-layer="layer1"
     showgrid="false"
     units="px"
     inkscape:window-width="1536"
     inkscape:window-height="801"
     inkscape:window-x="-8"
     inkscape:window-y="-8"
     inkscape:window-maximized="1" />
  <metadata
     id="metadata7">
    <rdf:RDF>
      <cc:Work
         rdf:about="">
        <dc:format>image/svg+xml</dc:format>
        <dc:type
           rdf:resource="http://purl.org/dc/dcmitype/StillImage" />
        <dc:title></dc:title>
      </cc:Work>
    </rdf:RDF>
  </metadata>
  <g
     inkscape:label="Layer 1"
     inkscape:groupmode="layer"
     id="layer1"
     transform="translate(0,-652.36216)">
    <path
       style="fill:#4d4d4d"
       d="m 0.22511875,1051.3779 c 0.52919,-1.3055 17.50354025,-51.1286 22.73921025,-66.74405 1.70908,-5.09735 5.13943,-15.16423 7.62298,-22.37083 2.48356,-7.20661 4.51556,-13.68331 4.51556,-14.39267 0,-0.70936 -0.75359,-2.39876 -1.67464,-3.7542 -2.37584,-3.49637 -9.2244,-17.50288 -12.06611,-24.6773 C 10.949459,893.1501 5.8748287,862.68742 7.6370287,837.04809 c 2.06513,-30.04689 8.8273803,-54.78419 21.7700403,-79.638 11.461,-22.0086 28.62898,-43.15356 48.56869,-59.8197 19.06872,-15.93813 42.854621,-28.86026 66.744191,-36.26003 35.68387,-11.05304 73.48091,-11.88101 109.30724,-2.39447 44.9301,11.89714 83.00526,38.3138 110.68036,76.79038 1.7889,2.48711 3.72113,5.36336 4.29384,6.39167 0.57271,1.02831 2.22185,3.73921 3.66476,6.02424 11.0609,17.51619 20.89723,44.18624 24.51642,66.47333 3.7746,23.24409 3.75826,41.21813 -0.0596,65.49716 -2.38122,15.14314 -8.66293,34.82872 -16.01639,50.19201 -5.7836,12.08347 -9.45954,18.27685 -18.75042,31.59151 -9.17449,13.14786 -28.71689,32.53036 -43.14375,42.79071 -21.13973,15.0346 -45.3316,26.086 -69.98875,31.9725 -44.8854,10.7157 -94.08856,4.8729 -134.9623,-16.0265 l -5.53104,-2.8281 -18.118131,5.7429 c -9.96494,3.1586 -30.48598,9.6551 -45.60227,14.4367 -36.8602903,11.6597 -41.5174003,13.1548 -44.05367025,14.1437 -1.02962,0.4014 -1.14849,0.2795 -0.73116,-0.7502 z M 220.46121,1010.1535 c 17.70011,-1.6418 38.40059,-7.41 53.53063,-14.91625 3.25199,-1.61337 6.07708,-2.9334 6.27796,-2.9334 0.87503,0 16.14361,-9.64944 21.45547,-13.55942 42.16897,-31.04004 67.03619,-79.84735 67.01496,-131.53142 -0.0213,-51.72632 -24.47709,-99.85493 -66.78527,-131.4321 -23.09749,-17.23906 -52.2489,-28.61643 -80.76252,-31.52043 -8.47418,-0.86307 -26.80719,-0.86679 -35.33831,-0.007 -17.53172,1.76652 -37.45812,7.43551 -53.14051,15.11826 -3.08807,1.51284 -5.74021,2.75061 -5.89363,2.75061 -0.15343,0 -3.96917,2.25017 -8.47944,5.00037 -18.878691,11.51157 -33.656511,24.75187 -46.514311,41.67483 -2.79654,3.68071 -5.37225,7.17948 -5.72379,7.77503 -0.35154,0.59556 -2.67289,4.47917 -5.15855,8.63026 -5.39997,9.01805 -8.51021,15.38045 -11.77487,24.087 -14.04534,37.45772 -14.22442,76.85393 -0.52004,114.40483 4.04742,11.0902 10.73803,24.06646 17.9244,34.76391 l 3.27532,4.87555 -5.63492,16.65516 c -3.09921,9.16034 -7.71686,22.76719 -10.26146,30.23745 -2.54459,7.47026 -4.39983,13.58226 -4.12276,13.58226 0.52359,0 25.20876,-7.65693 29.69538,-9.21102 1.40617,-0.48707 6.43961,-2.10894 11.18542,-3.60414 4.74581,-1.49521 11.627191,-3.67963 15.291961,-4.85428 l 6.66321,-2.13572 5.93687,3.54266 c 19.5463,11.6637 43.57952,19.8631 65.42629,22.3215 9.2407,1.0398 26.8162,1.1777 36.43251,0.2857 z m 32.27791,-71.331 c -6.59994,-0.82256 -20.88922,-5.02078 -34.83458,-10.23448 -18.55195,-6.93594 -28.20783,-12.17161 -42.82417,-23.22037 -7.38132,-5.57968 -22.62961,-20.0673 -28.49577,-27.07425 -1.72864,-2.0648 -3.43985,-4.07818 -3.80268,-4.47417 -3.21227,-3.50571 -11.68398,-15.05455 -19.17814,-26.14407 -18.47092,-27.33246 -20.46178,-54.80554 -5.47535,-75.55771 4.46853,-6.18772 8.87561,-10.3159 12.9785,-12.15716 3.84802,-1.72689 4.07758,-1.75149 12.21739,-1.30901 5.7673,0.31352 8.75456,0.75164 9.80129,1.43748 1.66352,1.08998 4.17977,6.03757 9.20239,18.09425 1.83059,4.39427 3.71356,8.85246 4.18438,9.90708 5.13647,11.5055 7.3696,17.98393 6.88882,19.98486 -1.00909,4.19963 -4.19083,9.02966 -10.99618,16.69271 -4.69021,5.28133 -4.78799,5.47574 -4.41565,8.77916 0.24048,2.13353 1.46895,4.50976 5.16492,9.99048 14.04601,20.8287 29.08449,34.1582 50.72447,44.96009 10.69756,5.33983 14.47113,6.57891 17.62504,5.78733 1.62112,-0.40687 9.02575,-8.64196 15.75254,-17.51925 2.2014,-2.90517 4.61579,-5.61032 5.36531,-6.01146 2.5081,-1.34229 5.98672,-0.59142 13.97037,3.01553 15.84538,7.15882 33.54479,15.87021 35.09524,17.27334 1.81279,1.64056 2.1223,5.89213 0.93571,12.85338 -1.95977,11.49725 -4.86518,16.66461 -13.00629,23.13218 -6.59333,5.23797 -15.7463,9.32453 -24.41381,10.90012 -7.1493,1.29963 -8.45645,1.39338 -12.46375,0.89394 z"
       id="path4147"
       inkscape:connector-curvature="0" />
  </g>
</svg>
